# xmcd
#
# Track frame offsets:
#	150
#	12858
#	22488
#	35459
#	46958
#	60987
#	72614
#	87765
#	105890
#	121411
#	133426
#	146845
#	160148
#	171108
#	187713
#
# Disc length: 2719 seconds
# Revision: 2
# Processed by: cddbd v1.5.2PL0 Copyright (c) Steve Scherf et al.
# Submitted via: dBpowerAMP V12.0
#
DISCID=cc0a9d0f
DTITLE=Various Artist - Superstars of Country: Dixie Road, Disc 1
DYEAR=2005
DGENRE=Country
TTITLE0=Jerry Lee Lewis - Chantilly Lace
TTITLE1=Johnny Rodriguez - Ridin' My Thumb to Mexico
TTITLE2=The Oak Ridge Boys - Bobbie Sue
TTITLE3=Loretta Lynn - Love Is the Foundation
TTITLE4=Lee Greenwood - Dixie Road
TTITLE5=Jack Greene - There Goes My Everything
TTITLE6=Kathy Mattea - Eighteen Wheels and a Dozen Roses
TTITLE7=Steve Wariner - You Can Dream of Me
TTITLE8=Don Williams - Till the Rivers All Run Dry
TTITLE9=Loretta Lynn and Conway Twitty - After the Fire Is Gone
TTITLE10=Bill Anderson and Mary Lou Turner - Sometimes
TTITLE11=Conway Twitty - How Much More Can She Stand
TTITLE12=Donna Fargo - Superman
TTITLE13=Freddy Fender - Secret Lover
TTITLE14=Barbara Mandrell - I Was Country When Country Wasn't Cool
EXTD=
EXTT0=
EXTT1=
EXTT2=
EXTT3=
EXTT4=
EXTT5=
EXTT6=
EXTT7=
EXTT8=
EXTT9=
EXTT10=
EXTT11=
EXTT12=
EXTT13=
EXTT14=
PLAYORDER=
